<svg width="24" height="24" viewBox="0 0 24 24" fill="none" xmlns="http://www.w3.org/2000/svg">
<path d="M23.5 12C23.5 18.3513 18.3513 23.5 12 23.5C5.64873 23.5 0.5 18.3513 0.5 12C0.5 5.64873 5.64873 0.5 12 0.5C18.3513 0.5 23.5 5.64873 23.5 12Z" fill="#6CDE07" stroke="#20252B"/>
<path fill-rule="evenodd" clip-rule="evenodd" d="M17.25 14.3655C17.25 16.293 15.6855 17.5725 13.3755 17.7653V19.5H11.793V17.748C10.2305 17.5718 8.74596 16.9717 7.5 16.0125L8.664 14.418C9.70125 15.2243 10.683 15.75 11.8658 15.9255V12.4905C9.21 11.8245 7.97325 10.8607 7.97325 8.88075C7.97325 6.9885 9.519 5.69175 11.793 5.51625V4.5H13.3755V5.5515C14.6123 5.68888 15.7915 6.14815 16.7955 6.8835L15.7762 8.5305C14.976 7.95225 14.1577 7.584 13.3027 7.40925V10.7385C16.068 11.4045 17.25 12.4732 17.25 14.3655ZM11.865 10.3702V7.28625C10.7197 7.374 10.1198 7.9875 10.1198 8.7585C10.1198 9.4935 10.4648 9.9675 11.8658 10.371L11.865 10.3702ZM15.1035 14.4877C15.1035 13.7002 14.721 13.227 13.3027 12.8235V15.996C14.4487 15.9075 15.1035 15.3293 15.1035 14.4885V14.4877Z" fill="white"/>
</svg>
